<svg width="750" height="380" viewBox="0 0 750 380" xmlns="http://www.w3.org/2000/svg">
  <style>
    text { font-family: -apple-system, BlinkMacSystemFont, 'Segoe UI', 'PingFang SC', sans-serif; font-size: 13px; }
    .box { rx: 8; ry: 8; }
    .arrow { stroke: #888; stroke-width: 2; fill: none; marker-end: url(#arrow); }
  </style>
  <defs>
    <marker id="arrow" markerWidth="10" markerHeight="7" refX="9" refY="3.5" orient="auto">
      <polygon points="0 0, 10 3.5, 0 7" fill="#888"/>
    </marker>
  </defs>
  <rect x="275" y="10" width="200" height="42" class="box" fill="#1a1a2e"/>
  <text x="375" y="36" text-anchor="middle" fill="#fff" font-size="14" font-weight="bold">👤 User / Human PM</text>
  <line x1="375" y1="52" x2="375" y2="75" class="arrow"/>
  <rect x="225" y="78" width="300" height="42" class="box" fill="#e94560"/>
  <text x="375" y="105" text-anchor="middle" fill="#fff" font-size="14" font-weight="bold">📋 SKILL.md — Entry Point</text>
  <line x1="247" y1="120" x2="120" y2="155" class="arrow"/>
  <line x1="375" y1="120" x2="375" y2="155" class="arrow"/>
  <line x1="502" y1="120" x2="630" y2="155" class="arrow"/>
  <rect x="20" y="158" width="200" height="60" class="box" fill="#16213e"/>
  <text x="120" y="184" text-anchor="middle" fill="#fff" font-size="13" font-weight="bold">⚙️ scripts/</text>
  <text x="120" y="203" text-anchor="middle" fill="#aaa" font-size="11">Lifecycle hooks</text>
  <rect x="275" y="158" width="200" height="60" class="box" fill="#0f3460"/>
  <text x="375" y="184" text-anchor="middle" fill="#fff" font-size="13" font-weight="bold">📜 references/</text>
  <text x="375" y="203" text-anchor="middle" fill="#aaa" font-size="11">Role protocols · Config · Design</text>
  <rect x="530" y="158" width="200" height="60" class="box" fill="#533483"/>
  <text x="630" y="184" text-anchor="middle" fill="#fff" font-size="13" font-weight="bold">📋 assets/</text>
  <text x="630" y="203" text-anchor="middle" fill="#aaa" font-size="11">Task cards · PR · Validation</text>
  <line x1="120" y1="218" x2="375" y2="258" class="arrow"/>
  <line x1="375" y1="218" x2="375" y2="258" class="arrow"/>
  <line x1="630" y1="218" x2="375" y2="258" class="arrow"/>
  <rect x="175" y="262" width="400" height="48" class="box" fill="#1a1a2e" stroke="#e94560" stroke-width="2"/>
  <text x="375" y="283" text-anchor="middle" fill="#fff" font-size="14" font-weight="bold">💾 .missions/ — Runtime State Machine</text>
  <text x="375" y="300" text-anchor="middle" fill="#aaa" font-size="11">Created by agent at runtime</text>
  <line x1="225" y1="310" x2="100" y2="345" class="arrow"/>
  <line x1="375" y1="310" x2="375" y2="345" class="arrow"/>
  <line x1="525" y1="310" x2="650" y2="345" class="arrow"/>
  <rect x="10" y="348" width="180" height="30" class="box" fill="#27ae60"/>
  <text x="100" y="368" text-anchor="middle" fill="#fff" font-size="12" font-weight="bold">config.yaml</text>
  <rect x="285" y="348" width="180" height="30" class="box" fill="#3498db"/>
  <text x="375" y="368" text-anchor="middle" fill="#fff" font-size="12" font-weight="bold">CONTRACT.md</text>
  <rect x="560" y="348" width="180" height="30" class="box" fill="#9b59b6"/>
  <text x="650" y="368" text-anchor="middle" fill="#fff" font-size="12" font-weight="bold">State folders (02→08)</text>
</svg>
