<svg width="750" height="400" viewBox="0 0 750 400" xmlns="http://www.w3.org/2000/svg">
  <style>
    text { font-family: -apple-system, BlinkMacSystemFont, 'Segoe UI', 'PingFang SC', sans-serif; font-size: 12px; }
    .box { rx: 6; ry: 6; }
  </style>
  <circle cx="375" cy="200" r="42" fill="#1a1a2e" stroke="#e94560" stroke-width="2.5"/>
  <text x="375" y="194" text-anchor="middle" fill="#fff" font-size="11" font-weight="bold">File System</text>
  <text x="375" y="210" text-anchor="middle" fill="#e94560" font-size="10">State Machine</text>
  <rect x="40" y="20" width="150" height="40" class="box" fill="#16213e"/>
  <text x="115" y="45" text-anchor="middle" fill="#fff" font-size="12" font-weight="bold">00-orchestrate</text>
  <line x1="190" y1="40" x2="335" y2="167" stroke="#666" stroke-width="1.5" stroke-dasharray="4,3"/>
  <rect x="40" y="85" width="150" height="40" class="box" fill="#0f3460"/>
  <text x="115" y="110" text-anchor="middle" fill="#fff" font-size="12" font-weight="bold">01-contract</text>
  <line x1="190" y1="105" x2="335" y2="180" stroke="#666" stroke-width="1.5" stroke-dasharray="4,3"/>
  <rect x="40" y="150" width="150" height="40" class="box" fill="#27ae60"/>
  <text x="115" y="175" text-anchor="middle" fill="#fff" font-size="12" font-weight="bold">02-ready ⏳</text>
  <line x1="190" y1="170" x2="335" y2="195" stroke="#27ae60" stroke-width="2"/>
  <rect x="40" y="215" width="150" height="40" class="box" fill="#f39c12"/>
  <text x="115" y="240" text-anchor="middle" fill="#fff" font-size="12" font-weight="bold">03-running ▶️</text>
  <line x1="190" y1="235" x2="335" y2="205" stroke="#f39c12" stroke-width="2"/>
  <rect x="40" y="280" width="150" height="40" class="box" fill="#3498db"/>
  <text x="115" y="305" text-anchor="middle" fill="#fff" font-size="12" font-weight="bold">04-review 👁️</text>
  <line x1="190" y1="300" x2="335" y2="215" stroke="#3498db" stroke-width="2"/>
  <rect x="560" y="85" width="150" height="40" class="box" fill="#27ae60"/>
  <text x="635" y="110" text-anchor="middle" fill="#fff" font-size="12" font-weight="bold">05-done ✅</text>
  <line x1="560" y1="105" x2="415" y2="180" stroke="#27ae60" stroke-width="2"/>
  <rect x="560" y="150" width="150" height="40" class="box" fill="#e74c3c"/>
  <text x="635" y="175" text-anchor="middle" fill="#fff" font-size="12" font-weight="bold">06-fix 🐛</text>
  <line x1="560" y1="170" x2="415" y2="195" stroke="#e74c3c" stroke-width="2"/>
  <rect x="560" y="215" width="150" height="40" class="box" fill="#9b59b6"/>
  <text x="635" y="240" text-anchor="middle" fill="#fff" font-size="12" font-weight="bold">07-pr 📤</text>
  <line x1="560" y1="235" x2="415" y2="205" stroke="#9b59b6" stroke-width="2"/>
  <rect x="560" y="280" width="150" height="40" class="box" fill="#1a1a2e"/>
  <text x="635" y="305" text-anchor="middle" fill="#fff" font-size="12" font-weight="bold">08-merged 🎉</text>
  <line x1="560" y1="300" x2="415" y2="215" stroke="#666" stroke-width="1.5" stroke-dasharray="4,3"/>
  <rect x="560" y="340" width="150" height="36" class="box" fill="#7f8c8d"/>
  <text x="635" y="363" text-anchor="middle" fill="#fff" font-size="12" font-weight="bold">archive 📦</text>
  <line x1="560" y1="358" x2="415" y2="225" stroke="#7f8c8d" stroke-width="1.5" stroke-dasharray="4,3"/>
  <text x="275" y="178" fill="#27ae60" font-size="11" font-weight="bold">mv</text>
  <text x="275" y="210" fill="#f39c12" font-size="11" font-weight="bold">mv</text>
  <text x="275" y="248" fill="#3498db" font-size="11" font-weight="bold">mv</text>
  <text x="495" y="178" fill="#27ae60" font-size="11" font-weight="bold">pass</text>
  <text x="495" y="210" fill="#e74c3c" font-size="11" font-weight="bold">fail</text>
  <text x="495" y="248" fill="#9b59b6" font-size="11" font-weight="bold">PR</text>
</svg>
